<svg id="visual" viewBox="0 0 960 300" width="960" height="300" xmlns="http://www.w3.org/2000/svg" xmlns:xlink="http://www.w3.org/1999/xlink" version="1.1"><rect x="0" y="0" width="960" height="300" fill="#3b3637"></rect><path d="M0 192L17.8 193.5C35.7 195 71.3 198 106.8 200.2C142.3 202.3 177.7 203.7 213.2 213.8C248.7 224 284.3 243 320 243.3C355.7 243.7 391.3 225.3 426.8 211.3C462.3 197.3 497.7 187.7 533.2 186.8C568.7 186 604.3 194 640 194.8C675.7 195.7 711.3 189.3 746.8 189.2C782.3 189 817.7 195 853.2 203.2C888.7 211.3 924.3 221.7 942.2 226.8L960 232L960 0L942.2 0C924.3 0 888.7 0 853.2 0C817.7 0 782.3 0 746.8 0C711.3 0 675.7 0 640 0C604.3 0 568.7 0 533.2 0C497.7 0 462.3 0 426.8 0C391.3 0 355.7 0 320 0C284.3 0 248.7 0 213.2 0C177.7 0 142.3 0 106.8 0C71.3 0 35.7 0 17.8 0L0 0Z" fill="#070610"></path><path d="M0 215L17.8 217.3C35.7 219.7 71.3 224.3 106.8 215.2C142.3 206 177.7 183 213.2 174.5C248.7 166 284.3 172 320 177.8C355.7 183.7 391.3 189.3 426.8 197.8C462.3 206.3 497.7 217.7 533.2 217.8C568.7 218 604.3 207 640 199.3C675.7 191.7 711.3 187.3 746.8 191C782.3 194.7 817.7 206.3 853.2 205.3C888.7 204.3 924.3 190.7 942.2 183.8L960 177L960 0L942.2 0C924.3 0 888.7 0 853.2 0C817.7 0 782.3 0 746.8 0C711.3 0 675.7 0 640 0C604.3 0 568.7 0 533.2 0C497.7 0 462.3 0 426.8 0C391.3 0 355.7 0 320 0C284.3 0 248.7 0 213.2 0C177.7 0 142.3 0 106.8 0C71.3 0 35.7 0 17.8 0L0 0Z" fill="#191426"></path><path d="M0 186L17.8 184.5C35.7 183 71.3 180 106.8 178.2C142.3 176.3 177.7 175.7 213.2 173.5C248.7 171.3 284.3 167.7 320 170.7C355.7 173.7 391.3 183.3 426.8 184.2C462.3 185 497.7 177 533.2 174.2C568.7 171.3 604.3 173.7 640 169.2C675.7 164.7 711.3 153.3 746.8 157.3C782.3 161.3 817.7 180.7 853.2 184C888.7 187.3 924.3 174.7 942.2 168.3L960 162L960 0L942.2 0C924.3 0 888.7 0 853.2 0C817.7 0 782.3 0 746.8 0C711.3 0 675.7 0 640 0C604.3 0 568.7 0 533.2 0C497.7 0 462.3 0 426.8 0C391.3 0 355.7 0 320 0C284.3 0 248.7 0 213.2 0C177.7 0 142.3 0 106.8 0C71.3 0 35.7 0 17.8 0L0 0Z" fill="#2b1c3a"></path><path d="M0 173L17.8 175.5C35.7 178 71.3 183 106.8 184.5C142.3 186 177.7 184 213.2 181.7C248.7 179.3 284.3 176.7 320 170.3C355.7 164 391.3 154 426.8 148.3C462.3 142.7 497.7 141.3 533.2 145.2C568.7 149 604.3 158 640 166.2C675.7 174.3 711.3 181.7 746.8 177.7C782.3 173.7 817.7 158.3 853.2 159C888.7 159.7 924.3 176.3 942.2 184.7L960 193L960 0L942.2 0C924.3 0 888.7 0 853.2 0C817.7 0 782.3 0 746.8 0C711.3 0 675.7 0 640 0C604.3 0 568.7 0 533.2 0C497.7 0 462.3 0 426.8 0C391.3 0 355.7 0 320 0C284.3 0 248.7 0 213.2 0C177.7 0 142.3 0 106.8 0C71.3 0 35.7 0 17.8 0L0 0Z" fill="#43224d"></path><path d="M0 131L17.8 132.5C35.7 134 71.3 137 106.8 134.5C142.3 132 177.7 124 213.2 124.5C248.7 125 284.3 134 320 132.8C355.7 131.7 391.3 120.3 426.8 123.7C462.3 127 497.7 145 533.2 144C568.7 143 604.3 123 640 117.8C675.7 112.7 711.3 122.3 746.8 130C782.3 137.7 817.7 143.3 853.2 140.3C888.7 137.3 924.3 125.7 942.2 119.8L960 114L960 0L942.2 0C924.3 0 888.7 0 853.2 0C817.7 0 782.3 0 746.8 0C711.3 0 675.7 0 640 0C604.3 0 568.7 0 533.2 0C497.7 0 462.3 0 426.8 0C391.3 0 355.7 0 320 0C284.3 0 248.7 0 213.2 0C177.7 0 142.3 0 106.8 0C71.3 0 35.7 0 17.8 0L0 0Z" fill="#5f255c"></path><path d="M0 118L17.8 121.7C35.7 125.3 71.3 132.7 106.8 136C142.3 139.3 177.7 138.7 213.2 136.2C248.7 133.7 284.3 129.3 320 129.8C355.7 130.3 391.3 135.7 426.8 135.5C462.3 135.3 497.7 129.7 533.2 124.7C568.7 119.7 604.3 115.3 640 109.5C675.7 103.7 711.3 96.3 746.8 97.3C782.3 98.3 817.7 107.7 853.2 115.2C888.7 122.7 924.3 128.3 942.2 131.2L960 134L960 0L942.2 0C924.3 0 888.7 0 853.2 0C817.7 0 782.3 0 746.8 0C711.3 0 675.7 0 640 0C604.3 0 568.7 0 533.2 0C497.7 0 462.3 0 426.8 0C391.3 0 355.7 0 320 0C284.3 0 248.7 0 213.2 0C177.7 0 142.3 0 106.8 0C71.3 0 35.7 0 17.8 0L0 0Z" fill="#7e2467"></path><path d="M0 77L17.8 77C35.7 77 71.3 77 106.8 76.5C142.3 76 177.7 75 213.2 77.8C248.7 80.7 284.3 87.3 320 90.5C355.7 93.7 391.3 93.3 426.8 96C462.3 98.7 497.7 104.3 533.2 103.2C568.7 102 604.3 94 640 88.2C675.7 82.3 711.3 78.7 746.8 82.7C782.3 86.7 817.7 98.3 853.2 100.8C888.7 103.3 924.3 96.7 942.2 93.3L960 90L960 0L942.2 0C924.3 0 888.7 0 853.2 0C817.7 0 782.3 0 746.8 0C711.3 0 675.7 0 640 0C604.3 0 568.7 0 533.2 0C497.7 0 462.3 0 426.8 0C391.3 0 355.7 0 320 0C284.3 0 248.7 0 213.2 0C177.7 0 142.3 0 106.8 0C71.3 0 35.7 0 17.8 0L0 0Z" fill="#9e206e"></path><path d="M0 85L17.8 85.3C35.7 85.7 71.3 86.3 106.8 84.5C142.3 82.7 177.7 78.3 213.2 75.8C248.7 73.3 284.3 72.7 320 73.3C355.7 74 391.3 76 426.8 78.5C462.3 81 497.7 84 533.2 84.2C568.7 84.3 604.3 81.7 640 79C675.7 76.3 711.3 73.7 746.8 70.8C782.3 68 817.7 65 853.2 67.3C888.7 69.7 924.3 77.3 942.2 81.2L960 85L960 0L942.2 0C924.3 0 888.7 0 853.2 0C817.7 0 782.3 0 746.8 0C711.3 0 675.7 0 640 0C604.3 0 568.7 0 533.2 0C497.7 0 462.3 0 426.8 0C391.3 0 355.7 0 320 0C284.3 0 248.7 0 213.2 0C177.7 0 142.3 0 106.8 0C71.3 0 35.7 0 17.8 0L0 0Z" fill="#c01770"></path><path d="M0 39L17.8 40.3C35.7 41.7 71.3 44.3 106.8 46.2C142.3 48 177.7 49 213.2 46.5C248.7 44 284.3 38 320 36.3C355.7 34.7 391.3 37.3 426.8 39.7C462.3 42 497.7 44 533.2 42.8C568.7 41.7 604.3 37.3 640 40.5C675.7 43.7 711.3 54.3 746.8 54.5C782.3 54.7 817.7 44.3 853.2 40.7C888.7 37 924.3 40 942.2 41.5L960 43L960 0L942.2 0C924.3 0 888.7 0 853.2 0C817.7 0 782.3 0 746.8 0C711.3 0 675.7 0 640 0C604.3 0 568.7 0 533.2 0C497.7 0 462.3 0 426.8 0C391.3 0 355.7 0 320 0C284.3 0 248.7 0 213.2 0C177.7 0 142.3 0 106.8 0C71.3 0 35.7 0 17.8 0L0 0Z" fill="#e0086d"></path><path d="M0 29L17.8 31.2C35.7 33.3 71.3 37.7 106.8 35.3C142.3 33 177.7 24 213.2 18.7C248.7 13.3 284.3 11.7 320 14.7C355.7 17.7 391.3 25.3 426.8 26.8C462.3 28.3 497.7 23.7 533.2 24.2C568.7 24.7 604.3 30.3 640 29C675.7 27.7 711.3 19.3 746.8 18.5C782.3 17.7 817.7 24.3 853.2 25.7C888.7 27 924.3 23 942.2 21L960 19L960 0L942.2 0C924.3 0 888.7 0 853.2 0C817.7 0 782.3 0 746.8 0C711.3 0 675.7 0 640 0C604.3 0 568.7 0 533.2 0C497.7 0 462.3 0 426.8 0C391.3 0 355.7 0 320 0C284.3 0 248.7 0 213.2 0C177.7 0 142.3 0 106.8 0C71.3 0 35.7 0 17.8 0L0 0Z" fill="#ff0066"></path></svg>